<svg width="461" height="311" viewBox="0 0 461 311" fill="none" xmlns="http://www.w3.org/2000/svg">
<g filter="url(#filter0_d_3103_2)">
<path d="M231.796 303C197.742 303 168.63 290.511 144.427 265.498C120.225 240.486 108.124 210.552 108.124 175.63V26.3021C108.124 19.0393 110.532 12.8286 115.315 7.70393C120.098 2.57926 125.832 0 132.453 0C139.074 0 144.808 2.57926 149.591 7.70393C154.374 12.8286 156.782 19.0393 156.782 26.3021V175.664C156.782 197.893 164.131 216.763 178.83 232.307C193.529 247.85 211.174 255.588 231.796 255.588C251.753 255.588 268.67 247.782 282.545 232.205C296.451 216.593 303.389 197.758 303.389 175.698V26.3021C303.389 19.0393 305.765 12.8286 310.485 7.70393C315.205 2.57926 321.002 0 327.845 0C334.687 0 340.516 2.57926 345.299 7.70393C350.083 12.8286 352.49 19.0393 352.49 26.3021V175.664C352.49 210.722 340.611 240.689 316.884 265.634C293.125 290.545 264.773 303 231.796 303Z" fill="white"/>
<path d="M26.1748 166.363C38.4216 166.363 48.3496 155.727 48.3496 142.606C48.3496 129.486 38.4216 118.85 26.1748 118.85C13.928 118.85 4 129.486 4 142.606C4 155.727 13.928 166.363 26.1748 166.363Z" fill="white"/>
<path d="M434.825 166.363C447.072 166.363 457 155.727 457 142.606C457 129.486 447.072 118.85 434.825 118.85C422.579 118.85 412.65 129.486 412.65 142.606C412.65 155.727 422.579 166.363 434.825 166.363Z" fill="white"/>
</g>
<defs>
<filter id="filter0_d_3103_2" x="0" y="0" width="461" height="311" filterUnits="userSpaceOnUse" color-interpolation-filters="sRGB">
<feFlood flood-opacity="0" result="BackgroundImageFix"/>
<feColorMatrix in="SourceAlpha" type="matrix" values="0 0 0 0 0 0 0 0 0 0 0 0 0 0 0 0 0 0 127 0" result="hardAlpha"/>
<feOffset dy="4"/>
<feGaussianBlur stdDeviation="2"/>
<feComposite in2="hardAlpha" operator="out"/>
<feColorMatrix type="matrix" values="0 0 0 0 0 0 0 0 0 0 0 0 0 0 0 0 0 0 0.25 0"/>
<feBlend mode="normal" in2="BackgroundImageFix" result="effect1_dropShadow_3103_2"/>
<feBlend mode="normal" in="SourceGraphic" in2="effect1_dropShadow_3103_2" result="shape"/>
</filter>
</defs>
</svg>
